PathFileType	4	(X/Y/Z)	walk-thru1-5-TP.trc
DataRate	CameraRate	NumFrames	NumMarkers	Units	OrigDataRate	OrigDataStartFrame	OrigNumFrames
120.00	120.00	       4	60	mm	120.00	250	       498
Frame#	Time	Top.Head			Front.Head			Rear.Head			Jaw			C7			R.Clavicle			L.Clavicle			R.Shoulder			L.Shoulder			R.Scapula			L.Scapula			R.Scap.Inf			R.Biceps.Lateral			R.Elbow			R.Elbow.Medial			R.Forearm			R.Ulna			R.Radius			R.Wrist			R.Thumb.M1			R.Thumb.M2			R.Thumb.M3			R.Finger3.M1			R.Finger3.M2			R.Finger3.M3			L.Biceps.Lateral			L.Elbow			L.Elbow.Medial			L.Forearm			L.Ulna			L.Radius			L.Wrist			L.Thumb.M1			L.Thumb.M2			L.Thumb.M3			L.Finger3.M1			L.Finger3.M2			L.Finger3.M3			V.Sacral			R.ASIS			L.ASIS			R.Thigh			R.Thigh.Front			R.Knee			R.Knee.Medial			R.Shank			R.Ankle			R.Ankle.Medial			R.Heel			R.Toe			R.MedFoot			L.Thigh			L.Knee			L.Knee.Medial			L.Shank			L.Ankle			L.Ankle.Medial			L.Heel			L.Toe			L.MedFoot			V_mid_ASIS			V_R_Knee_JC			V_L_Knee_JC			V_R_Elbow_JC			V_L_Elbow_JC			V_R_Ankle_JC			V_L_Ankle_JC			V_R_Wrist_JC			V_L_Wrist_JC			V_R_ScaTrpz_1stMC_JC			V_R_1stMC_1stPP_JC			V_R_1stPP_1stDP_JC			V_R_LunCap_3rdMC_JC			V_R_3rdMC_3rdPP_JC			V_R_3rdPP_3rdMP_JC			V_R_3rdMP_3rdDP_JC			V_L_ScaTrpz_1stMC_JC			V_L_1stMC_1stPP_JC			V_L_1stPP_1stDP_JC			V_L_LunCap_3rdMC_JC			V_L_3rdMC_3rdPP_JC			V_L_3rdPP_3rdMP_JC			V_L_3rdMP_3rdPP_JC			V_ROOT_JC			V_R_Hip_JC			V_L_Hip_JC			V_R_GlenHum_JC			V_L_GlenHum_JC			V_ForeHead_Ctr			V_Vertex			V_Sagit_Lambdoid_Suture			V_R_FrontoTemp			V_L_FrontoTemporal			V_R_ParietalOccip			V_L_ParietalOcciptal			V_R_Temporal			V_L_Temporal			V_mid_FrontRearHead			V_mid_RLGlenHumCtrs			V_C7_vert			V_C1_vert			V_Mid_Hip			
		X1	Y1	Z1	X2	Y2	Z2	X3	Y3	Z3	X4	Y4	Z4	X5	Y5	Z5	X6	Y6	Z6	X7	Y7	Z7	X8	Y8	Z8	X9	Y9	Z9	X10	Y10	Z10	X11	Y11	Z11	X12	Y12	Z12	X13	Y13	Z13	X14	Y14	Z14	X15	Y15	Z15	X16	Y16	Z16	X17	Y17	Z17	X18	Y18	Z18	X19	Y19	Z19	X20	Y20	Z20	X21	Y21	Z21	X22	Y22	Z22	X23	Y23	Z23	X24	Y24	Z24	X25	Y25	Z25	X26	Y26	Z26	X27	Y27	Z27	X28	Y28	Z28	X29	Y29	Z29	X30	Y30	Z30	X31	Y31	Z31	X32	Y32	Z32	X33	Y33	Z33	X34	Y34	Z34	X35	Y35	Z35	X36	Y36	Z36	X37	Y37	Z37	X38	Y38	Z38	X39	Y39	Z39	X40	Y40	Z40	X41	Y41	Z41	X42	Y42	Z42	X43	Y43	Z43	X44	Y44	Z44	X45	Y45	Z45	X46	Y46	Z46	X47	Y47	Z47	X48	Y48	Z48	X49	Y49	Z49	X50	Y50	Z50	X51	Y51	Z51	X52	Y52	Z52	X53	Y53	Z53	X54	Y54	Z54	X55	Y55	Z55	X56	Y56	Z56	X57	Y57	Z57	X58	Y58	Z58	X59	Y59	Z59	X60	Y60	Z60	

250	2.075	-303.54581	-23.60080	1746.64880	-386.63190	1.17004	1615.94104	-165.00949	-36.89390	1687.73914	-281.00031	-6.08145	1453.74097	-57.33587	-25.20847	1565.04932	-145.61308	101.98203	1486.23999	-165.49179	-138.94170	1464.59192	-83.94798	203.55432	1483.37183	-127.85975	-246.03384	1465.80481	18.18517	67.96790	1481.92236	8.34964	-122.29543	1466.33789	51.68572	71.45441	1392.26868	-34.13718	237.02640	1348.64954	45.34014	264.42230	1171.91833	32.49884	168.78912	1160.53430	-45.24260	271.10443	1101.41003	19.33371	272.32013	969.61517	-90.59653	272.88074	933.39966	-86.45600	322.10129	909.37311	-108.22575	274.61148	885.41687	-119.81482	258.17484	835.76093	-120.85513	269.24277	784.77960	-103.57120	347.88898	830.13690	-73.09112	306.68530	767.31049	-52.73227	254.96291	801.86438	-71.72948	-282.83408	1325.02344	-7.42894	-309.22766	1160.01294	9.06907	-217.85562	1128.14136	-98.20240	-311.50873	1087.07324	-54.41904	-344.04321	978.82642	-157.70097	-327.04477	938.05524	-140.52716	-369.95554	904.56207	-190.94296	-331.92319	889.47797	-216.67160	-310.49539	846.05292	-233.29419	-316.11685	799.03485	-181.06500	-390.43228	814.04785	-195.05653	-362.58423	753.55511	-190.25665	-303.41559	750.51965	75.04253	-12.54332	1117.00232	-107.54301	186.42105	1055.55859	-118.00524	-164.51967	1050.42078	-153.44456	206.52451	690.97443	-256.46100	117.16663	610.79791	-223.98856	178.91925	548.03009	-217.15337	63.78704	534.56213	-283.44308	149.51256	340.85660	-249.44710	195.02098	98.44704	-262.39529	91.30004	118.04028	-194.91541	146.74602	48.88627	-413.43463	149.52501	81.58610	-360.22659	120.62314	105.86421	-52.20087	-158.26611	663.60303	-35.19065	-133.21680	519.45355	-21.13491	-25.36009	502.51718	-1.16004	-89.05479	312.59082	143.46130	-96.36801	88.35864	92.25051	-5.79488	110.99210	186.99283	-26.25154	58.95155	-33.52328	-95.85831	40.79213	26.47458	-48.35269	83.91370																																																																																																																															
251	2.083	-309.12833	-22.95694	1745.57031	-393.09964	2.36881	1614.85364	-170.45143	-34.72507	1687.35339	-287.33444	-3.77939	1452.95264	-63.22784	-25.28542	1564.18823	-150.89047	102.99963	1485.34949	-171.95688	-137.74588	1464.56323	-89.91984	204.68582	1483.16589	-133.08365	-245.02179	1465.65845	11.39111	68.32764	1480.80542	3.34080	-121.82162	1465.34570	46.15763	73.54086	1391.07104	-39.47475	239.22191	1348.29321	38.44405	266.22977	1170.37061	27.45853	169.31546	1158.72961	-51.34285	270.15045	1099.47241	13.67031	273.78278	968.34021	-97.65865	272.04672	931.49622	-92.98862	321.35144	908.31036	-114.99940	274.58566	882.86072	-123.07093	258.89056	831.26056	-123.07183	272.79541	780.78534	-108.50748	350.34198	829.99573	-75.41531	312.83923	766.02972	-59.78199	259.25897	800.98743	-77.26698	-282.19556	1324.85742	-12.55418	-308.76102	1159.24597	2.77393	-216.27794	1127.46191	-103.25064	-309.21246	1086.94141	-59.93385	-343.73929	978.27087	-163.71486	-327.24121	937.73151	-146.10951	-369.63843	904.39117	-196.14502	-330.68066	889.32220	-223.17113	-310.36975	846.21490	-238.70241	-315.79327	799.72705	-186.58127	-389.29251	814.80408	-201.36908	-362.95624	754.22571	-195.30826	-304.24860	750.24500	69.46818	-11.64287	1116.04590	-114.20267	187.71220	1054.50427	-123.43517	-163.23328	1049.83447	-158.55719	208.38196	688.74878	-261.46301	115.99023	611.03674	-229.90932	178.14886	547.44153	-222.59308	62.52481	534.05060	-291.16489	149.03362	341.44461	-257.21689	194.36917	98.74976	-271.44995	90.69003	118.47057	-206.57622	146.89754	47.55640	-424.42310	149.51303	83.27330	-369.59955	119.51083	107.29470	-56.41248	-157.49770	662.91492	-38.27953	-133.22704	519.03351	-22.99712	-24.38331	501.54907	-2.36995	-88.01286	312.20660	143.43228	-95.90373	89.16142	92.32203	-5.50852	111.34328	186.74074	-25.78786	59.15817	-33.20631	-96.13457	40.78069	26.42820	-47.36804	84.14272																																																																																																																															
252	2.092	-314.90552	-21.36307	1744.97925	-397.82904	3.14843	1614.49036	-175.88647	-34.13279	1686.70398	-292.45618	-3.59985	1451.86987	-70.02087	-23.87767	1562.89294	-156.06180	104.24054	1484.26196	-177.21501	-136.00511	1464.21252	-96.14524	206.56110	1481.37476	-138.44446	-243.91405	1465.69568	5.94507	70.43349	1479.00098	-3.58553	-120.41697	1464.27100	40.97886	74.23222	1390.38989	-45.91068	239.60840	1345.70142	33.95928	266.99612	1169.50708	19.02902	170.70526	1157.37378	-57.91418	270.19186	1097.72583	6.50963	274.33646	967.70111	-103.72838	272.17065	928.84229	-100.51122	322.25076	906.06213	-120.85325	274.34741	879.54401	-124.55315	259.61911	827.82574	-123.38622	273.26035	776.99396	-115.15411	351.80719	829.53687	-78.29169	316.38785	764.51184	-63.99995	263.83456	799.78613	-82.58916	-281.28064	1324.63232	-17.95570	-307.24951	1159.50037	-2.30470	-215.05553	1127.41150	-109.02842	-310.08282	1087.31104	-64.92478	-342.00070	978.28259	-168.93060	-326.20685	938.01404	-152.28374	-370.38086	904.67499	-201.64787	-331.29807	890.01227	-228.44412	-309.76440	846.74219	-244.71880	-314.81006	799.31427	-192.72144	-389.24664	814.86340	-207.03145	-361.45093	754.76959	-200.87514	-304.06552	749.80475	63.37202	-9.72743	1115.45264	-120.73761	188.40385	1054.24231	-129.44852	-162.91658	1049.83557	-164.17569	207.83754	687.09644	-266.34900	114.31845	611.30609	-236.38043	177.79852	546.52319	-226.78578	62.00101	534.25549	-298.45105	148.73297	342.00674	-268.93954	193.52657	96.40878	-280.93423	88.99513	118.11993	-216.15977	145.15652	46.75069	-433.25848	147.69569	84.21587	-379.74945	118.97346	107.16960	-60.03193	-156.48370	662.27722	-41.78160	-132.01080	518.37909	-26.33557	-23.47398	501.39392	-4.08917	-88.19311	312.03531	143.12727	-95.49072	89.60661	91.99129	-5.02765	111.25160	186.35567	-25.38957	59.70269	-33.31501	-96.28513	40.68145	26.36162	-46.77267	83.29007																																																																																																																															
253	2.100	-320.68051	-20.03907	1744.47864	-404.29028	4.13210	1613.88074	-182.25482	-31.81396	1686.27979	-298.81461	-1.31282	1451.35779	-74.67001	-22.25495	1562.23279	-162.32779	106.22964	1483.29688	-183.29417	-135.37425	1463.25378	-101.80884	206.97565	1480.30286	-143.62900	-242.25223	1464.79773	-0.65674	71.70610	1477.90918	-8.19737	-118.52653	1464.10645	34.28387	75.28230	1388.29639	-50.95489	241.75677	1345.34998	26.32004	267.84589	1167.23267	15.43591	171.57843	1156.45715	-64.68991	270.11496	1096.08325	-0.49060	277.29626	965.99554	-109.38511	272.98193	927.94330	-108.48357	322.50690	905.28937	-127.05061	276.19238	877.41064	-130.09271	260.98621	825.51508	-124.68451	273.45096	775.08472	-119.23838	352.96429	827.28088	-80.88914	318.21713	763.74658	-67.87750	265.55920	799.45569	-87.13488	-278.78635	1324.66101	-22.49483	-305.73874	1159.04431	-8.26768	-214.15874	1126.76868	-114.21327	-308.09946	1086.69055	-70.06613	-341.41718	978.23706	-174.04109	-325.09500	937.56525	-156.77130	-368.67392	904.41632	-207.03369	-329.89868	889.72150	-233.89635	-309.22388	846.59454	-250.67639	-314.49106	799.33508	-197.60535	-388.86731	814.31091	-212.09584	-361.08356	754.19287	-206.78961	-302.41437	750.11694	57.02590	-8.82113	1115.12134	-127.43108	189.30380	1053.05872	-134.99741	-161.72839	1049.09705	-169.43777	208.20087	685.87799	-271.73499	113.29028	611.36127	-242.50273	177.38251	546.11737	-232.09766	61.55308	534.09735	-305.80481	148.62463	340.44476	-275.88416	192.71541	96.02050	-290.30841	87.68215	116.63177	-223.30385	143.54680	45.33385	-441.51904	148.13002	83.64713	-387.22964	117.85531	106.45659	-64.25997	-156.70395	661.88727	-44.66770	-131.76636	517.79071	-29.52953	-23.31118	500.84015	-6.60483	-87.86636	311.61212	143.44485	-95.07740	90.30947	91.23867	-5.16059	111.95464	186.45032	-25.12259	60.71544	-33.14988	-96.18105	40.65496	25.76672	-46.93071	83.57430																																																																																																																															
